<svg id="Layer_1" data-name="Layer 1" xmlns="http://www.w3.org/2000/svg" viewBox="0 0 345.76 325.7"><path d="M412,165l-46.38-46.85a20.62,20.62,0,0,0-30,.71L224.17,242.54a25.65,25.65,0,0,1-21.79,8.37c-15.62-1.69-34.55,1-49.23,13.56-42.38,36.25-31.92,110-67.92,134.81C58,418.05,79.11,437.57,98,437.57c53.62,0,160.39,8,177.4-106.84a26.05,26.05,0,0,1,8-15.11L411.52,194.46A20.62,20.62,0,0,0,412,165Zm-31.06,24.92L289.56,279.3a12.86,12.86,0,0,1-18.71-.77l-17.68-20.4a12.86,12.86,0,0,1,.29-17.16l85.28-92a12.86,12.86,0,0,1,18.38-.5l23.78,23A12.85,12.85,0,0,1,380.94,189.88Z" transform="translate(-72.21 -112)" style="fill:#3995ff"/></svg>