<svg xmlns="http://www.w3.org/2000/svg" viewBox="0 0 718.23 319.75"><g id="Layer_2" data-name="Layer 2"><g id="Layer_1-2" data-name="Layer 1"><path d="M56.55,316.7H0V37.85L56.55,3.05Z" style="fill:#f9f9f9"/><path d="M259.28,0,201,96.15a111.21,111.21,0,1,1-99.62,53.5L194,0ZM197.07,263.2c30.88,0,55.68-24.37,55.68-55.25a55.51,55.51,0,0,0-55.68-55.68c-30.89,0-55.25,24.79-55.25,55.68A54.78,54.78,0,0,0,197.07,263.2Z" style="fill:#f9f9f9"/><path d="M393.7,316.7H337.15V37.85L393.7,3.05Z" style="fill:#f9f9f9"/><path d="M572.06,13.92c80.49,0,146.17,65.69,146.17,146.17S652.55,305.83,572.06,305.83A145.74,145.74,0,0,1,426.33,160.09C426.33,79.61,491.58,13.92,572.06,13.92Zm-.87,235.79c50,0,90.92-40.46,90.92-90.49A91.16,91.16,0,0,0,571.19,68.3c-50,0-90.48,40.89-90.48,90.92A90.41,90.41,0,0,0,571.19,249.71Z" style="fill:#f9f9f9"/></g></g></svg>